<svg xmlns="http://www.w3.org/2000/svg" xmlns:xlink="http://www.w3.org/1999/xlink" width="161" zoomAndPan="magnify" viewBox="0 0 375 374.999991" height="160" preserveAspectRatio="xMidYMid meet" version="1.0"><defs><linearGradient x1="0" gradientTransform="matrix(0.75, 0, 0, 0.75, 0.0000045, 0)" y1="0" x2="499.999979" gradientUnits="userSpaceOnUse" y2="499.999979" id="75dc9cb170"><stop stop-opacity="1" stop-color="rgb(100%, 100%, 100%)" offset="0"/><stop stop-opacity="1" stop-color="rgb(99.839783%, 99.833679%, 99.833679%)" offset="0.015625"/><stop stop-opacity="1" stop-color="rgb(99.520874%, 99.501038%, 99.501038%)" offset="0.03125"/><stop stop-opacity="1" stop-color="rgb(99.201965%, 99.169922%, 99.169922%)" offset="0.046875"/><stop stop-opacity="1" stop-color="rgb(98.883057%, 98.838806%, 98.838806%)" offset="0.0625"/><stop stop-opacity="1" stop-color="rgb(98.564148%, 98.50769%, 98.50769%)" offset="0.078125"/><stop stop-opacity="1" stop-color="rgb(98.245239%, 98.176575%, 98.176575%)" offset="0.09375"/><stop stop-opacity="1" stop-color="rgb(97.926331%, 97.845459%, 97.845459%)" offset="0.109375"/><stop stop-opacity="1" stop-color="rgb(97.607422%, 97.514343%, 97.514343%)" offset="0.125"/><stop stop-opacity="1" stop-color="rgb(97.288513%, 97.183228%, 97.183228%)" offset="0.140625"/><stop stop-opacity="1" stop-color="rgb(96.97113%, 96.852112%, 96.852112%)" offset="0.15625"/><stop stop-opacity="1" stop-color="rgb(96.652222%, 96.520996%, 96.520996%)" offset="0.171875"/><stop stop-opacity="1" stop-color="rgb(96.333313%, 96.18988%, 96.18988%)" offset="0.1875"/><stop stop-opacity="1" stop-color="rgb(96.014404%, 95.857239%, 95.857239%)" offset="0.203125"/><stop stop-opacity="1" stop-color="rgb(95.695496%, 95.526123%, 95.526123%)" offset="0.21875"/><stop stop-opacity="1" stop-color="rgb(95.376587%, 95.195007%, 95.195007%)" offset="0.234375"/><stop stop-opacity="1" stop-color="rgb(95.057678%, 94.863892%, 94.863892%)" offset="0.25"/><stop stop-opacity="1" stop-color="rgb(94.73877%, 94.532776%, 94.532776%)" offset="0.265625"/><stop stop-opacity="1" stop-color="rgb(94.419861%, 94.20166%, 94.20166%)" offset="0.28125"/><stop stop-opacity="1" stop-color="rgb(94.100952%, 93.870544%, 93.870544%)" offset="0.296875"/><stop stop-opacity="1" stop-color="rgb(93.783569%, 93.539429%, 93.539429%)" offset="0.3125"/><stop stop-opacity="1" stop-color="rgb(93.464661%, 93.208313%, 93.208313%)" offset="0.328125"/><stop stop-opacity="1" stop-color="rgb(93.145752%, 92.877197%, 92.877197%)" offset="0.34375"/><stop stop-opacity="1" stop-color="rgb(92.826843%, 92.546082%, 92.546082%)" offset="0.359375"/><stop stop-opacity="1" stop-color="rgb(92.507935%, 92.21344%, 92.21344%)" offset="0.375"/><stop stop-opacity="1" stop-color="rgb(92.189026%, 91.882324%, 91.882324%)" offset="0.390625"/><stop stop-opacity="1" stop-color="rgb(91.870117%, 91.551208%, 91.551208%)" offset="0.40625"/><stop stop-opacity="1" stop-color="rgb(91.551208%, 91.220093%, 91.220093%)" offset="0.421875"/><stop stop-opacity="1" stop-color="rgb(91.2323%, 90.888977%, 90.888977%)" offset="0.4375"/><stop stop-opacity="1" stop-color="rgb(90.914917%, 90.557861%, 90.557861%)" offset="0.453125"/><stop stop-opacity="1" stop-color="rgb(90.596008%, 90.226746%, 90.226746%)" offset="0.46875"/><stop stop-opacity="1" stop-color="rgb(90.2771%, 89.89563%, 89.89563%)" offset="0.484375"/><stop stop-opacity="1" stop-color="rgb(89.958191%, 89.564514%, 89.564514%)" offset="0.5"/><stop stop-opacity="1" stop-color="rgb(89.639282%, 89.233398%, 89.233398%)" offset="0.515625"/><stop stop-opacity="1" stop-color="rgb(89.320374%, 88.902283%, 88.902283%)" offset="0.53125"/><stop stop-opacity="1" stop-color="rgb(89.001465%, 88.571167%, 88.571167%)" offset="0.546875"/><stop stop-opacity="1" stop-color="rgb(88.682556%, 88.238525%, 88.238525%)" offset="0.5625"/><stop stop-opacity="1" stop-color="rgb(88.363647%, 87.90741%, 87.90741%)" offset="0.578125"/><stop stop-opacity="1" stop-color="rgb(88.044739%, 87.576294%, 87.576294%)" offset="0.59375"/><stop stop-opacity="1" stop-color="rgb(87.727356%, 87.245178%, 87.245178%)" offset="0.609375"/><stop stop-opacity="1" stop-color="rgb(87.408447%, 86.914062%, 86.914062%)" offset="0.625"/><stop stop-opacity="1" stop-color="rgb(87.089539%, 86.582947%, 86.582947%)" offset="0.640625"/><stop stop-opacity="1" stop-color="rgb(86.77063%, 86.251831%, 86.251831%)" offset="0.65625"/><stop stop-opacity="1" stop-color="rgb(86.451721%, 85.920715%, 85.920715%)" offset="0.671875"/><stop stop-opacity="1" stop-color="rgb(86.132812%, 85.5896%, 85.5896%)" offset="0.6875"/><stop stop-opacity="1" stop-color="rgb(85.813904%, 85.258484%, 85.258484%)" offset="0.703125"/><stop stop-opacity="1" stop-color="rgb(85.494995%, 84.927368%, 84.927368%)" offset="0.71875"/><stop stop-opacity="1" stop-color="rgb(85.176086%, 84.594727%, 84.594727%)" offset="0.734375"/><stop stop-opacity="1" stop-color="rgb(84.857178%, 84.263611%, 84.263611%)" offset="0.75"/><stop stop-opacity="1" stop-color="rgb(84.539795%, 83.932495%, 83.932495%)" offset="0.765625"/><stop stop-opacity="1" stop-color="rgb(84.220886%, 83.601379%, 83.601379%)" offset="0.78125"/><stop stop-opacity="1" stop-color="rgb(83.901978%, 83.270264%, 83.270264%)" offset="0.796875"/><stop stop-opacity="1" stop-color="rgb(83.583069%, 82.939148%, 82.939148%)" offset="0.8125"/><stop stop-opacity="1" stop-color="rgb(83.26416%, 82.608032%, 82.608032%)" offset="0.828125"/><stop stop-opacity="1" stop-color="rgb(82.945251%, 82.276917%, 82.276917%)" offset="0.84375"/><stop stop-opacity="1" stop-color="rgb(82.626343%, 81.945801%, 81.945801%)" offset="0.859375"/><stop stop-opacity="1" stop-color="rgb(82.307434%, 81.614685%, 81.614685%)" offset="0.875"/><stop stop-opacity="1" stop-color="rgb(81.988525%, 81.283569%, 81.283569%)" offset="0.890625"/><stop stop-opacity="1" stop-color="rgb(81.671143%, 80.950928%, 80.950928%)" offset="0.90625"/><stop stop-opacity="1" stop-color="rgb(81.352234%, 80.619812%, 80.619812%)" offset="0.921875"/><stop stop-opacity="1" stop-color="rgb(81.033325%, 80.288696%, 80.288696%)" offset="0.9375"/><stop stop-opacity="1" stop-color="rgb(80.714417%, 79.957581%, 79.957581%)" offset="0.953125"/><stop stop-opacity="1" stop-color="rgb(80.395508%, 79.626465%, 79.626465%)" offset="0.96875"/><stop stop-opacity="1" stop-color="rgb(80.076599%, 79.295349%, 79.295349%)" offset="0.984375"/><stop stop-opacity="1" stop-color="rgb(79.75769%, 78.964233%, 78.964233%)" offset="1"/></linearGradient><clipPath id="f6c1c26ec8"><path d="M 375 17.25 L 375 357.75 C 375 362.324219 373.183594 366.710938 369.949219 369.949219 C 366.710938 373.183594 362.324219 375 357.75 375 L 17.25 375 C 12.675781 375 8.289062 373.183594 5.050781 369.949219 C 1.816406 366.710938 0 362.324219 0 357.75 L 0 17.25 C 0 12.675781 1.816406 8.289062 5.050781 5.050781 C 8.289062 1.816406 12.675781 0 17.25 0 L 357.75 0 C 362.324219 0 366.710938 1.816406 369.949219 5.050781 C 373.183594 8.289062 375 12.675781 375 17.25 Z M 375 17.25 " clip-rule="nonzero"/></clipPath><linearGradient x1="0" gradientTransform="matrix(0, 1.464844, -1.464844, 0, 374.999995, 0)" y1="128" x2="255.999988" gradientUnits="userSpaceOnUse" y2="128" id="3769650db4"><stop stop-opacity="1" stop-color="rgb(100%, 100%, 100%)" offset="0"/><stop stop-opacity="1" stop-color="rgb(99.824524%, 99.824524%, 99.824524%)" offset="0.015625"/><stop stop-opacity="1" stop-color="rgb(99.473572%, 99.473572%, 99.473572%)" offset="0.03125"/><stop stop-opacity="1" stop-color="rgb(99.124146%, 99.124146%, 99.124146%)" offset="0.046875"/><stop stop-opacity="1" stop-color="rgb(98.773193%, 98.773193%, 98.773193%)" offset="0.0625"/><stop stop-opacity="1" stop-color="rgb(98.423767%, 98.423767%, 98.423767%)" offset="0.078125"/><stop stop-opacity="1" stop-color="rgb(98.074341%, 98.074341%, 98.074341%)" offset="0.09375"/><stop stop-opacity="1" stop-color="rgb(97.723389%, 97.723389%, 97.723389%)" offset="0.109375"/><stop stop-opacity="1" stop-color="rgb(97.373962%, 97.373962%, 97.373962%)" offset="0.125"/><stop stop-opacity="1" stop-color="rgb(97.02301%, 97.02301%, 97.02301%)" offset="0.140625"/><stop stop-opacity="1" stop-color="rgb(96.673584%, 96.673584%, 96.673584%)" offset="0.15625"/><stop stop-opacity="1" stop-color="rgb(96.324158%, 96.324158%, 96.324158%)" offset="0.171875"/><stop stop-opacity="1" stop-color="rgb(95.973206%, 95.973206%, 95.973206%)" offset="0.1875"/><stop stop-opacity="1" stop-color="rgb(95.623779%, 95.623779%, 95.623779%)" offset="0.203125"/><stop stop-opacity="1" stop-color="rgb(95.274353%, 95.274353%, 95.274353%)" offset="0.21875"/><stop stop-opacity="1" stop-color="rgb(94.923401%, 94.923401%, 94.923401%)" offset="0.234375"/><stop stop-opacity="1" stop-color="rgb(94.573975%, 94.573975%, 94.573975%)" offset="0.25"/><stop stop-opacity="1" stop-color="rgb(94.223022%, 94.223022%, 94.223022%)" offset="0.265625"/><stop stop-opacity="1" stop-color="rgb(93.873596%, 93.873596%, 93.873596%)" offset="0.28125"/><stop stop-opacity="1" stop-color="rgb(93.52417%, 93.52417%, 93.52417%)" offset="0.296875"/><stop stop-opacity="1" stop-color="rgb(93.173218%, 93.173218%, 93.173218%)" offset="0.3125"/><stop stop-opacity="1" stop-color="rgb(92.823792%, 92.823792%, 92.823792%)" offset="0.328125"/><stop stop-opacity="1" stop-color="rgb(92.474365%, 92.474365%, 92.474365%)" offset="0.34375"/><stop stop-opacity="1" stop-color="rgb(92.123413%, 92.123413%, 92.123413%)" offset="0.359375"/><stop stop-opacity="1" stop-color="rgb(91.773987%, 91.773987%, 91.773987%)" offset="0.375"/><stop stop-opacity="1" stop-color="rgb(91.423035%, 91.423035%, 91.423035%)" offset="0.390625"/><stop stop-opacity="1" stop-color="rgb(91.073608%, 91.073608%, 91.073608%)" offset="0.40625"/><stop stop-opacity="1" stop-color="rgb(90.724182%, 90.724182%, 90.724182%)" offset="0.421875"/><stop stop-opacity="1" stop-color="rgb(90.37323%, 90.37323%, 90.37323%)" offset="0.4375"/><stop stop-opacity="1" stop-color="rgb(90.023804%, 90.023804%, 90.023804%)" offset="0.453125"/><stop stop-opacity="1" stop-color="rgb(89.674377%, 89.674377%, 89.674377%)" offset="0.46875"/><stop stop-opacity="1" stop-color="rgb(89.323425%, 89.323425%, 89.323425%)" offset="0.484375"/><stop stop-opacity="1" stop-color="rgb(88.973999%, 88.973999%, 88.973999%)" offset="0.5"/><stop stop-opacity="1" stop-color="rgb(88.623047%, 88.623047%, 88.623047%)" offset="0.515625"/><stop stop-opacity="1" stop-color="rgb(88.273621%, 88.273621%, 88.273621%)" offset="0.53125"/><stop stop-opacity="1" stop-color="rgb(87.924194%, 87.924194%, 87.924194%)" offset="0.546875"/><stop stop-opacity="1" stop-color="rgb(87.573242%, 87.573242%, 87.573242%)" offset="0.5625"/><stop stop-opacity="1" stop-color="rgb(87.223816%, 87.223816%, 87.223816%)" offset="0.578125"/><stop stop-opacity="1" stop-color="rgb(86.87439%, 86.87439%, 86.87439%)" offset="0.59375"/><stop stop-opacity="1" stop-color="rgb(86.523438%, 86.523438%, 86.523438%)" offset="0.609375"/><stop stop-opacity="1" stop-color="rgb(86.174011%, 86.174011%, 86.174011%)" offset="0.625"/><stop stop-opacity="1" stop-color="rgb(85.823059%, 85.823059%, 85.823059%)" offset="0.640625"/><stop stop-opacity="1" stop-color="rgb(85.473633%, 85.473633%, 85.473633%)" offset="0.65625"/><stop stop-opacity="1" stop-color="rgb(85.124207%, 85.124207%, 85.124207%)" offset="0.671875"/><stop stop-opacity="1" stop-color="rgb(84.773254%, 84.773254%, 84.773254%)" offset="0.6875"/><stop stop-opacity="1" stop-color="rgb(84.423828%, 84.423828%, 84.423828%)" offset="0.703125"/><stop stop-opacity="1" stop-color="rgb(84.074402%, 84.074402%, 84.074402%)" offset="0.71875"/><stop stop-opacity="1" stop-color="rgb(83.72345%, 83.72345%, 83.72345%)" offset="0.734375"/><stop stop-opacity="1" stop-color="rgb(83.374023%, 83.374023%, 83.374023%)" offset="0.75"/><stop stop-opacity="1" stop-color="rgb(83.023071%, 83.023071%, 83.023071%)" offset="0.765625"/><stop stop-opacity="1" stop-color="rgb(82.673645%, 82.673645%, 82.673645%)" offset="0.78125"/><stop stop-opacity="1" stop-color="rgb(82.324219%, 82.324219%, 82.324219%)" offset="0.796875"/><stop stop-opacity="1" stop-color="rgb(81.973267%, 81.973267%, 81.973267%)" offset="0.8125"/><stop stop-opacity="1" stop-color="rgb(81.62384%, 81.62384%, 81.62384%)" offset="0.828125"/><stop stop-opacity="1" stop-color="rgb(81.274414%, 81.274414%, 81.274414%)" offset="0.84375"/><stop stop-opacity="1" stop-color="rgb(80.923462%, 80.923462%, 80.923462%)" offset="0.859375"/><stop stop-opacity="1" stop-color="rgb(80.574036%, 80.574036%, 80.574036%)" offset="0.875"/><stop stop-opacity="1" stop-color="rgb(80.223083%, 80.223083%, 80.223083%)" offset="0.890625"/><stop stop-opacity="1" stop-color="rgb(79.873657%, 79.873657%, 79.873657%)" offset="0.90625"/><stop stop-opacity="1" stop-color="rgb(79.524231%, 79.524231%, 79.524231%)" offset="0.921875"/><stop stop-opacity="1" stop-color="rgb(79.173279%, 79.173279%, 79.173279%)" offset="0.9375"/><stop stop-opacity="1" stop-color="rgb(78.823853%, 78.823853%, 78.823853%)" offset="0.953125"/><stop stop-opacity="1" stop-color="rgb(78.474426%, 78.474426%, 78.474426%)" offset="0.96875"/><stop stop-opacity="1" stop-color="rgb(78.123474%, 78.123474%, 78.123474%)" offset="0.984375"/><stop stop-opacity="1" stop-color="rgb(77.774048%, 77.774048%, 77.774048%)" offset="1"/></linearGradient><clipPath id="5ec18fcf36"><path d="M 28.363281 70.394531 L 346.363281 70.394531 L 346.363281 304.335938 L 28.363281 304.335938 Z M 28.363281 70.394531 " clip-rule="nonzero"/></clipPath></defs><rect x="-37.5" width="450" fill="#ffffff" y="-37.499999" height="449.999989" fill-opacity="1"/><rect x="-37.5" fill="url(#75dc9cb170)" width="450" y="-37.499999" height="449.999989"/><g clip-path="url(#f6c1c26ec8)"><rect x="-37.5" fill="url(#3769650db4)" width="450" y="-37.499999" height="449.999989"/></g><g clip-path="url(#5ec18fcf36)"><path fill="#1d0057" d="M 330.367188 196.59375 C 324.515625 205.667969 300.730469 214.960938 297.039062 216.359375 C 296.800781 216.453125 296.566406 216.554688 296.335938 216.664062 C 295.648438 216.988281 293.390625 217.605469 290.078125 214.082031 C 287.171875 210.988281 282.164062 203.144531 279.617188 199.046875 C 278.789062 197.710938 279.382812 195.949219 280.851562 195.390625 L 325.253906 178.503906 C 326.195312 178.144531 327.257812 178.402344 327.925781 179.15625 C 330.363281 181.902344 335.304688 188.933594 330.367188 196.59375 Z M 318.703125 263.238281 C 315.628906 264.117188 311.230469 264.722656 305.078125 264.351562 C 302.898438 264.222656 300.8125 263.398438 299.128906 262 L 285.21875 250.449219 C 283.140625 248.722656 283.507812 245.425781 285.917969 244.210938 C 291.160156 241.570312 300.34375 238.167969 311.71875 239.054688 C 316.546875 239.433594 320.742188 242.511719 322.515625 247.019531 C 323.269531 248.949219 323.980469 251.277344 324.460938 254.011719 C 325.1875 258.109375 322.703125 262.097656 318.703125 263.238281 Z M 277.183594 265.164062 L 97.78125 265.164062 C 95.992188 265.164062 95.0625 264.042969 96.273438 263.351562 L 104.359375 258.738281 C 113.527344 254.011719 124.164062 253.59375 128.375 253.636719 C 133.085938 253.683594 137.792969 253.699219 142.503906 253.699219 L 232.460938 253.699219 C 237.171875 253.699219 241.882812 253.683594 246.589844 253.636719 C 250.800781 253.59375 261.4375 254.011719 270.605469 258.738281 L 278.691406 263.351562 C 279.90625 264.042969 278.972656 265.164062 277.183594 265.164062 Z M 95.347656 199.046875 C 92.800781 203.144531 87.792969 210.988281 84.886719 214.082031 C 81.570312 217.605469 79.316406 216.988281 78.628906 216.664062 C 78.398438 216.554688 78.164062 216.453125 77.929688 216.359375 C 74.234375 214.960938 50.449219 205.667969 44.597656 196.59375 C 39.660156 188.933594 44.601562 181.902344 47.039062 179.15625 C 47.707031 178.402344 48.769531 178.144531 49.714844 178.503906 L 94.113281 195.390625 C 95.582031 195.949219 96.175781 197.710938 95.347656 199.046875 Z M 89.746094 250.449219 L 75.835938 262 C 74.15625 263.398438 72.070312 264.222656 69.886719 264.351562 C 63.738281 264.722656 59.339844 264.117188 56.261719 263.238281 C 52.261719 262.097656 49.78125 258.109375 50.503906 254.011719 C 50.984375 251.277344 51.695312 248.949219 52.449219 247.019531 C 54.222656 242.511719 58.417969 239.433594 63.246094 239.054688 C 74.621094 238.167969 83.804688 241.570312 89.046875 244.210938 C 91.457031 245.425781 91.824219 248.722656 89.746094 250.449219 Z M 268.90625 224.925781 C 265.363281 228.074219 259.597656 231.46875 250.484375 233 C 250.484375 233 227.070312 237.15625 187.480469 237.15625 C 147.894531 237.15625 124.480469 233 124.480469 233 C 115.367188 231.46875 109.601562 228.074219 106.058594 224.925781 C 102.589844 221.84375 101.839844 216.710938 104.269531 212.757812 L 106.203125 209.621094 C 109.820312 203.738281 115.808594 199.699219 122.628906 198.59375 C 137.257812 196.230469 160.34375 196.054688 174.664062 196.21875 C 183.109375 196.3125 191.558594 196.324219 200.007812 196.222656 C 214.304688 196.050781 237.605469 196.210938 252.335938 198.59375 C 259.15625 199.699219 265.144531 203.738281 268.761719 209.621094 L 270.695312 212.757812 C 273.128906 216.710938 272.375 221.84375 268.90625 224.925781 Z M 81.070312 129.738281 C 82.59375 124.96875 87.597656 112.644531 103.125 90.898438 C 106.328125 86.414062 111.375 83.597656 116.875 83.230469 C 131.101562 82.277344 160.660156 80.550781 187.480469 80.550781 C 214.304688 80.550781 243.867188 82.277344 258.089844 83.230469 C 263.589844 83.597656 268.632812 86.414062 271.839844 90.898438 C 287.367188 112.644531 292.371094 124.96875 293.894531 129.738281 C 294.261719 130.878906 293.398438 132.042969 292.195312 132.027344 L 187.480469 130.417969 L 82.769531 132.027344 C 81.570312 132.042969 80.703125 130.878906 81.070312 129.738281 Z M 346.597656 268.410156 L 345.304688 192.890625 C 344.484375 170.695312 313.707031 142.289062 313.707031 142.289062 C 316.839844 140.59375 320.316406 139.609375 323.878906 139.449219 C 328.914062 139.230469 336.066406 137.476562 334.347656 129.046875 C 332.445312 119.75 318.222656 117.53125 310.667969 117.007812 C 308.296875 116.84375 306.425781 118.996094 306.90625 121.324219 L 309.546875 134.144531 C 309.546875 134.152344 309.546875 134.160156 309.550781 134.171875 C 309.738281 135.128906 308.425781 135.617188 307.925781 134.777344 L 305.578125 130.824219 C 286.96875 98.917969 278.855469 87.609375 272.035156 81.761719 C 268.941406 79.105469 265.234375 77.265625 261.257812 76.382812 C 231.78125 69.835938 187.480469 70.410156 187.480469 70.410156 C 187.480469 70.410156 143.183594 69.835938 113.707031 76.382812 C 109.730469 77.265625 106.023438 79.105469 102.929688 81.761719 C 96.109375 87.609375 87.996094 98.917969 69.390625 130.824219 L 67.042969 134.777344 C 66.535156 135.617188 65.226562 135.128906 65.414062 134.171875 C 65.414062 134.160156 65.417969 134.152344 65.421875 134.144531 L 68.058594 121.324219 C 68.539062 118.996094 66.664062 116.84375 64.296875 117.007812 C 56.742188 117.53125 42.519531 119.75 40.621094 129.046875 C 38.898438 137.476562 46.050781 139.230469 51.089844 139.449219 C 54.652344 139.609375 58.125 140.59375 61.261719 142.289062 C 61.261719 142.289062 30.480469 170.695312 29.660156 192.890625 L 28.367188 268.410156 C 28.3125 271.542969 29.550781 274.542969 31.761719 276.695312 L 31.761719 285.5 C 31.761719 296.011719 40.359375 304.613281 50.871094 304.613281 L 85.933594 304.613281 C 93.058594 304.613281 98.890625 298.78125 98.890625 291.652344 L 98.890625 286.183594 L 276.074219 286.183594 L 276.074219 291.652344 C 276.074219 298.78125 281.90625 304.613281 289.03125 304.613281 L 324.09375 304.613281 C 334.605469 304.613281 343.203125 296.011719 343.203125 285.5 L 343.203125 276.695312 C 345.414062 274.542969 346.652344 271.542969 346.597656 268.410156 " fill-opacity="1" fill-rule="nonzero"/></g></svg>